<?xml version="1.0" standalone="no"?><!DOCTYPE svg PUBLIC "-//W3C//DTD SVG 1.1//EN" "http://www.w3.org/Graphics/SVG/1.1/DTD/svg11.dtd"><svg t="1551026709249" class="icon" style="" viewBox="0 0 1024 1024" version="1.1" xmlns="http://www.w3.org/2000/svg" p-id="2589" xmlns:xlink="http://www.w3.org/1999/xlink" width="32" height="32"><defs><style type="text/css"></style></defs><path d="M902.227762 118.710232c-48.584095 0-86.702169 54.172106-86.702169 54.172106S779.567523 118.710232 728.801423 118.710232c-49.380096 0-89.702175 40.72808-92.34218 90.040176-1.486003 27.856054 7.496015 49.062096 20.148039 68.262133 25.284049 38.364075 135.826265 130.728255 159.082311 130.728255 23.736046 0 133.29426-92.02418 158.74431-130.728255 12.678025-19.290038 21.634042-40.404079 20.14204-68.262133-2.640005-49.312096-42.964084-90.040176-92.348181-90.040176" fill="#BBDCE3" p-id="2590"></path><path d="M165.450323 344.890674c1.018002 29.008057 5.956012 66.104129 11.154022 131.212256 7.346014 92.00018 84.186164 162.898318 176.478345 162.898318s169.13233-70.896138 176.478344-162.896318c5.20001-65.108127 10.13802-102.2082 11.156022-131.216256l-375.266733 0.002z" fill="#F0CA83" p-id="2591"></path><path d="M487.230952 741.871449h-45.578089l-19.862039-116.760228a176.450345 176.450345 0 0 1-68.706134 13.888027 176.452345 176.452345 0 0 1-68.702135-13.888027l-19.862038 116.758228h-45.578089c-93.730183 0-169.714331 75.982148-169.714332 169.714331v43.940086h607.715187v-43.940086c0-93.726183-75.982148-169.712331-169.712331-169.712331z" fill="#F0CA83" p-id="2592"></path><path d="M560.681095 152.794298c-12.380024-12.322024-25.66805-23.472046-39.804078-33.278065-47.092092-32.780064-103.578202-51.0421-167.792327-51.042099-64.184125 0-120.700236 18.264036-167.792328 51.042099C169.634331 130.404255 155.000303 142.900279 141.478276 156.890306c-71.64814 74.048145-112.212219 189.24437-112.212219 325.044635 0 159.518312 128.544251 260.834509 128.544251 260.83451h43.598085a171.486335 171.486335 0 0 1 17.532035-0.898002h45.582089l19.862038-116.758228c-59.226116-24.966049-102.3642-81.242159-107.77621-149.010291-5.19801-65.108127-10.13602-102.2062-11.154022-131.212256h375.270733c-1.018002 29.008057-5.958012 66.104129-11.156022 131.216256-5.412011 67.766132-48.550095 124.040242-107.77221 149.008291l19.862039 116.760228h45.578089c5.920012 0 11.768023 0.308001 17.532034 0.898002h43.626085s128.514251-96.438188 128.514251-260.83451c-0.006-138.29227-42.092082-255.276499-116.228227-329.144643z" fill="#DE5E88" p-id="2593"></path><path d="M1023.8 207.186405c-3.536007-66.024129-56.938111-117.74023-121.576238-117.74023-36.578071 0-66.838131 20.812041-86.492169 39.280076-19.446038-18.480036-49.624097-39.280077-86.93417-39.280076-52.062102 0-96.812189 33.564066-114.108222 81.122158-10.31002-13.744027-21.424042-26.618052-33.350066-38.504075l-0.012-0.012c-13.688027-13.624027-28.416056-25.932051-43.728085-36.556071-53.660105-37.352073-115.736226-56.28811-184.51236-56.28811-68.774134 0-130.850256 18.940037-184.504361 56.28211-17.116033 11.904023-33.316065 25.71805-48.136094 41.05008C42.774084 216.812423 0 339.478663 0 481.936941c0 127.554249 73.900144 219.698429 114.270223 260.524509-36.760072 22.834045-65.544128 57.300112-81.206158 98.226192a29.052057 29.052057 0 0 0-1.364003 3.600007 197.992387 197.992387 0 0 0-11.740023 67.298131v43.942086c0 16.164032 13.104026 29.268057 29.268057 29.268057h607.715187c16.164032 0 29.268057-13.104026 29.268057-29.268057v-43.942086c0-71.126139-37.538073-133.622261-93.820183-168.810329 40.71408-40.150078 113.782222-130.376255 113.782222-260.83651 0-42.998084-3.908008-84.124164-11.450022-122.83024a862.021684 862.021684 0 0 0 23.526046 20.20604c69.730136 57.696113 89.146174 57.696113 97.43819 57.696113 8.392016 0 28.048055 0 97.42419-57.598113 30.89206-25.64805 69.646136-61.788121 85.778168-86.316169 11.714023-17.828035 27.044053-46.12409 24.910049-85.910167zM627.675226 926.259809H78.496153v-14.674029c0-10.15202 1.110002-20.046039 3.164006-29.592057h309.360605c16.164032 0 29.268057-13.104026 29.268057-29.268058s-13.104026-29.268057-29.268057-29.268057H109.698214c22.926045-28.360055 56.624111-47.668093 94.830185-51.5821a143.084279 143.084279 0 0 1 14.414029-0.734002h45.576089c14.270028 0 26.460052-10.29402 28.852056-24.360047l14.216028-83.570164c0.612001 0.138 1.232002 0.232 1.844003 0.362001 2.604005 0.562001 5.22201 1.082002 7.852016 1.546003 1.138002 0.2 2.278004 0.384001 3.418006 0.562001 2.484005 0.392001 4.97801 0.738001 7.480015 1.040002 1.078002 0.128 2.152004 0.266001 3.232006 0.378001 2.828006 0.296001 5.666011 0.524001 8.514017 0.706001 0.722001 0.046 1.446003 0.114 2.172004 0.152001 3.650007 0.194 7.308014 0.316001 10.984022 0.316 3.670007 0 7.326014-0.122 10.970021-0.314 0.752001-0.038 1.498003-0.112 2.250004-0.158001 2.816006-0.178 5.622011-0.404001 8.418017-0.696001 1.110002-0.118 2.212004-0.254 3.318006-0.390001 2.470005-0.298001 4.92801-0.638001 7.378015-1.024002 1.168002-0.184 2.336005-0.372001 3.500007-0.576001 2.604005-0.456001 5.19201-0.974002 7.770015-1.528003 0.630001-0.138 1.268002-0.232 1.894003-0.372001l14.216028 83.570164a29.266057 29.266057 0 0 0 28.852057 24.360047h45.578089c4.786009 0 9.634019 0.248 14.414028 0.734002 70.696138 7.240014 126.032246 67.134131 126.032246 139.710272l0.002 14.670029zM207.590405 487.812953a147.464288 147.464288 0 0 1-0.946001-6.152012c-0.062-0.468001-0.128-0.936002-0.188001-1.408003a141.272276 141.272276 0 0 1-0.676001-6.480013c-2.286004-28.632056-4.562009-52.310102-6.392013-71.334139a3397.146635 3397.146635 0 0 1-2.648005-28.282055h312.690611c-0.738001 8.400016-1.634003 17.706035-2.646005 28.250055-1.600003 16.654033-3.548007 36.866072-5.540011 60.856119-0.284001 3.428007-0.570001 6.930014-0.858002 10.51002a144.362282 144.362282 0 0 1-0.860001 7.870016 146.658286 146.658286 0 0 1-0.954002 6.204012l-0.002 0.018c-11.990023 67.046131-69.696136 118.318231-138.29827 121.686238a150.646294 150.646294 0 0 1-7.188014 0.178c-2.402005 0-4.800009-0.062-7.188014-0.178-68.600134-3.366007-126.298247-54.632107-138.296271-121.674238-0.002-0.016-0.004-0.04-0.01-0.064z m330.236645 225.690441h-31.624061c-1.726003-0.164-3.468007-0.248-5.20401-0.368001-1.320003-0.09-2.632005-0.216-3.958008-0.280001-3.276006-0.16-6.554013-0.248-9.810019-0.248h-20.868041l-12.050024-70.842139c0.936002-0.526001 1.846004-1.104002 2.774006-1.644003 1.270002-0.740001 2.538005-1.484003 3.790007-2.248004 0.930002-0.570001 1.856004-1.148002 2.778006-1.732004 40.78208-25.80005 70.966139-64.858127 85.692167-110.438215l0.036-0.112a206.886404 206.886404 0 0 0 4.88401-17.856035c0.094-0.412001 0.184-0.826002 0.276-1.240003a206.472403 206.472403 0 0 0 3.300007-19.398038c0.352001-2.872006 0.664001-5.752011 0.896001-8.654017 2.250004-28.178055 4.408009-50.622099 6.314013-70.424137 2.108004-21.930043 3.828007-39.828078 4.634009-55.506108 0.114-2.238004 0.21-4.434009 0.286-6.588013a29.268057 29.268057 0 0 0-29.248057-30.29406H165.450323a29.268057 29.268057 0 0 0-29.248057 30.29406c0.606001 17.244034 2.508005 37.050072 4.92001 62.124121 1.902004 19.794039 4.060008 42.228082 6.310012 70.392137 0.232 2.904006 0.544001 5.786011 0.896002 8.658017a207.664406 207.664406 0 0 0 3.578007 20.638041 206.944404 206.944404 0 0 0 4.882009 17.850035l0.038 0.122c14.724029 45.578089 44.908088 84.634165 85.686168 110.436215 0.924002 0.588001 1.852004 1.164002 2.784005 1.738004 1.244002 0.760001 2.506005 1.502003 3.770007 2.236004 0.934002 0.548001 1.850004 1.126002 2.792006 1.656003l-12.050024 70.840139h-20.86404c-3.258006 0-6.532013 0.088-9.81002 0.248-1.326003 0.064-2.638005 0.19-3.956007 0.280001-1.736003 0.12-3.478007 0.204-5.20401 0.368001H168.664329c-25.61805-23.206045-110.128215-109.066213-110.128215-231.568453 0-127.188248 36.928072-235.39846 103.988203-304.706595C174.720341 164.612322 188.000367 153.278299 202.014395 143.53428c43.658085-30.386059 94.484185-45.796089 151.070295-45.796089s107.41621 15.41003 151.112295 45.824089c12.530024 8.690017 24.584048 18.776037 35.83807 29.974059 69.388136 69.148135 107.60021 178.674349 107.60021 308.400602 0.002 125.778246-84.592165 209.430409-109.808215 231.566453z m412.150805-452.570884c-20.62004 31.352061-107.068209 103.914203-134.222262 116.482227-27.394054-12.746025-114.188223-85.366167-134.710263-116.502227-11.710023-17.774035-16.306032-32.906064-15.36003-50.596099 1.838004-34.372067 30.154059-62.338122 63.116123-62.338122 28.346055 0 54.658107 29.734058 62.338122 41.08808 5.32401 8.022016 14.286028 12.870025 23.912047 13.032026 9.738019 0.17 18.752037-4.460009 24.348047-12.292024 8.312016-11.634023 35.80007-41.830082 62.826123-41.830082 32.968064 0 61.28012 27.966055 63.122123 62.338122 0.958002 17.888035-3.496007 32.552064-15.37003 50.618099z" fill="" p-id="2594"></path><path d="M505.386987 841.525644a29.672058 29.672058 0 0 0-2.692005-5.03401 29.820058 29.820058 0 0 0-3.658007-4.448009 29.820058 29.820058 0 0 0-4.448009-3.658007c-1.580003-1.054002-3.278006-1.960004-5.03401-2.692005a30.93406 30.93406 0 0 0-5.474011-1.668004 29.006057 29.006057 0 0 0-11.444022 0c-1.874004 0.380001-3.716007 0.936002-5.474011 1.668004-1.786003 0.732001-3.482007 1.638003-5.064009 2.692005a29.820058 29.820058 0 0 0-4.448009 3.658007 28.020055 28.020055 0 0 0-3.630007 4.448009c-1.054002 1.580003-1.960004 3.278006-2.692005 5.03401a30.93406 30.93406 0 0 0-1.668004 5.47401c-0.380001 1.902004-0.586001 3.804007-0.586001 5.736011 0 1.902004 0.204 3.834007 0.586001 5.708012 0.380001 1.874004 0.936002 3.716007 1.668004 5.47401 0.732001 1.786003 1.638003 3.482007 2.692005 5.06401a27.912055 27.912055 0 0 0 3.630007 4.448009 28.020055 28.020055 0 0 0 4.448009 3.630007c1.580003 1.054002 3.278006 1.960004 5.064009 2.692005 1.756003 0.732001 3.600007 1.288003 5.474011 1.668004 1.874004 0.380001 3.804007 0.586001 5.708011 0.586001 1.902004 0 3.834007-0.204 5.736011-0.586001 1.844004-0.380001 3.688007-0.936002 5.474011-1.668004a29.672058 29.672058 0 0 0 5.03401-2.692005 27.912055 27.912055 0 0 0 4.448009-3.630007 28.846056 28.846056 0 0 0 6.350012-9.512019 28.838056 28.838056 0 0 0 2.224004-11.182022c0-1.932004-0.176-3.834007-0.556001-5.736011a30.192059 30.192059 0 0 0-1.668003-5.47401z" fill="" p-id="2595"></path></svg>